<svg xmlns="http://www.w3.org/2000/svg" viewBox="0 0 128 128" role="img" aria-label="Sunoxi Knowledge Base">
  <defs>
    <linearGradient id="bg" x1="18" y1="10" x2="110" y2="118" gradientUnits="userSpaceOnUse">
      <stop offset="0" stop-color="#22d3ee"/>
      <stop offset="0.52" stop-color="#6366f1"/>
      <stop offset="1" stop-color="#14b8a6"/>
    </linearGradient>
    <linearGradient id="stroke" x1="34" y1="30" x2="94" y2="98" gradientUnits="userSpaceOnUse">
      <stop offset="0" stop-color="#ffffff"/>
      <stop offset="1" stop-color="#dbeafe"/>
    </linearGradient>
    <filter id="softShadow" x="-20%" y="-20%" width="140%" height="140%">
      <feDropShadow dx="0" dy="8" stdDeviation="10" flood-color="#020617" flood-opacity="0.26"/>
    </filter>
  </defs>
  <rect x="10" y="10" width="108" height="108" rx="30" fill="url(#bg)" filter="url(#softShadow)"/>
  <path d="M88 40C80 31 61 29 49 36C38 42 37 55 50 60L76 69C91 75 88 92 73 97C59 102 42 98 34 88" fill="none" stroke="url(#stroke)" stroke-width="12" stroke-linecap="round" stroke-linejoin="round"/>
  <circle cx="39" cy="87" r="6" fill="#ecfeff"/>
  <circle cx="90" cy="41" r="6" fill="#ecfeff"/>
  <circle cx="64" cy="64" r="5" fill="#ccfbf1"/>
  <path d="M39 87L64 64L90 41" fill="none" stroke="#ffffff" stroke-width="3" stroke-linecap="round" opacity="0.55"/>
</svg>
